<svg xmlns="http://www.w3.org/2000/svg" width="25" height="25" viewBox="0 0 25 25">
  <path id="ic_shopping_cart_24px" d="M8.5,22A2.5,2.5,0,1,0,11,24.5,2.5,2.5,0,0,0,8.5,22ZM1,2V4.5H3.5L8,13.988,6.313,17.05A2.417,2.417,0,0,0,6,18.25a2.507,2.507,0,0,0,2.5,2.5h15v-2.5H9.025a.309.309,0,0,1-.312-.312l.038-.15L9.875,15.75h9.312a2.488,2.488,0,0,0,2.187-1.287L25.85,6.35a1.221,1.221,0,0,0,.15-.6A1.254,1.254,0,0,0,24.75,4.5H6.263L5.088,2H1ZM21,22a2.5,2.5,0,1,0,2.5,2.5A2.5,2.5,0,0,0,21,22Z" transform="translate(-1 -2)" fill="#707070"/>
</svg>
